<svg width="93" height="30" viewBox="0 0 93 30" fill="none" xmlns="http://www.w3.org/2000/svg">
<g clip-path="url(#clip0_598_2864)">
<path d="M46.103 3.78906H57.2538V3.81112V10.3295H57.3255H82.0589L77.2942 19.6769H57.2538V26.2119H46.103V3.78906Z" fill="url(#paint0_linear_598_2864)"/>
<path d="M34.8915 3.80009V3.78906H46.1029V26.2119H34.8915V19.6769H10.147L14.9062 10.3405L14.9117 10.3295H34.8915V3.80009Z" fill="url(#paint1_linear_598_2864)"/>
<path d="M57.2538 3.7886H46.103V0H61.0424V0.0386029L57.3144 3.81066H57.2538V3.7886Z" fill="#E6E7E8"/>
<path d="M46.1031 0V3.7886H34.8917V3.79963L31.1196 0H46.1031Z" fill="#E6E7E8"/>
<path d="M34.8916 3.79963V10.329L31.1196 6.53493H31.103V0H31.1196L34.8916 3.79963Z" fill="#D0D2D3"/>
<path d="M61.0425 0.0390625V6.5409H61.0756L57.3256 10.3295H57.2539V3.81112H57.3146L61.0425 0.0390625Z" fill="#BBBDBF"/>
<path d="M46.103 26.2109V29.9995H31.103L34.8916 26.2109H46.103Z" fill="#808184"/>
<path d="M46.103 29.9995V26.2109H57.2538L61.0424 29.9995H46.103Z" fill="#6D6E70"/>
<path d="M92.2057 6.54004L83.5862 23.4647L77.2939 19.6761L82.0587 10.3286L92.2057 6.54004Z" fill="#A6A8AB"/>
<path d="M92.2057 6.54004L82.0587 10.3286H57.3252L61.0752 6.54004H92.2057Z" fill="#E6E7E8"/>
<path d="M83.5866 23.4654H61.0425L57.2539 19.6768H77.2943L83.5866 23.4654Z" fill="#808184"/>
<path d="M61.0425 23.4654V30.0003L57.2539 26.2117V19.6768L61.0425 23.4654Z" fill="#BBBDBF"/>
<path d="M34.8916 19.6768V26.2117L31.103 30.0003V23.4654L34.8916 19.6768Z" fill="#D0D2D3"/>
<path d="M31.1196 6.53516L34.8917 10.3293H14.9119L14.9064 10.3403L8.61963 6.54067H31.1031V6.53516H31.1196Z" fill="#E6E7E8"/>
<path d="M34.8915 19.6768L31.1029 23.4654H0L10.1471 19.6768H34.8915Z" fill="#808184"/>
<path d="M14.9063 10.3397L10.1471 19.6761L0 23.4647L8.61949 6.54004L14.9063 10.3397Z" fill="#BBBDBF"/>
<path d="M56.7021 4.34053V10.881H81.1598L76.9576 19.1255H56.7021V25.6659H35.4429V19.1255H11.0459L15.2481 10.881H35.4429V4.34053H56.7021ZM57.2536 3.78906H34.8915V10.3295H14.9117L10.147 19.6769H34.8915V26.2174H57.2536V19.6769H77.294L82.0587 10.3295H57.2536V3.78906Z" fill="url(#paint2_linear_598_2864)"/>
</g>
<defs>
<linearGradient id="paint0_linear_598_2864" x1="64.081" y1="3.78906" x2="64.081" y2="26.2119" gradientUnits="userSpaceOnUse">
<stop stop-color="#E5B959"/>
<stop offset="1" stop-color="#C8872B"/>
</linearGradient>
<linearGradient id="paint1_linear_598_2864" x1="28.1249" y1="3.78906" x2="28.1249" y2="26.2119" gradientUnits="userSpaceOnUse">
<stop stop-color="#E3D4AC"/>
<stop offset="1" stop-color="#E59B2F"/>
</linearGradient>
<linearGradient id="paint2_linear_598_2864" x1="46.1029" y1="3.78906" x2="46.1029" y2="26.2119" gradientUnits="userSpaceOnUse">
<stop offset="0.25" stop-color="#8D6427"/>
<stop offset="0.7" stop-color="#FFD36D" stop-opacity="0.9"/>
</linearGradient>
<clipPath id="clip0_598_2864">
<rect width="92.2059" height="30" fill="white"/>
</clipPath>
</defs>
</svg>
